<?xml version="1.0" encoding="UTF-8" standalone="no"?>
<!-- Uploaded to: SVG Repo, www.svgrepo.com, Generator: SVG Repo Mixer Tools -->

<svg
   width="800px"
   height="800px"
   viewBox="0 0 16 16"
   version="1.1"
   id="svg1"
   sodipodi:docname="slide_pointer.svg"
   inkscape:version="1.3.2 (091e20e, 2023-11-25, custom)"
   xmlns:inkscape="http://www.inkscape.org/namespaces/inkscape"
   xmlns:sodipodi="http://sodipodi.sourceforge.net/DTD/sodipodi-0.dtd"
   xmlns="http://www.w3.org/2000/svg"
   xmlns:svg="http://www.w3.org/2000/svg">
  <defs
     id="defs1" />
  <sodipodi:namedview
     id="namedview1"
     pagecolor="#ffffff"
     bordercolor="#000000"
     borderopacity="0.25"
     inkscape:showpageshadow="2"
     inkscape:pageopacity="0.0"
     inkscape:pagecheckerboard="0"
     inkscape:deskcolor="#d1d1d1"
     inkscape:zoom="1.02625"
     inkscape:cx="400"
     inkscape:cy="400"
     inkscape:window-width="1920"
     inkscape:window-height="1017"
     inkscape:window-x="1912"
     inkscape:window-y="-8"
     inkscape:window-maximized="1"
     inkscape:current-layer="svg1" />
  <path
     fill="#444"
     d="M12.6 5c-0.2 0-0.5 0-0.6 0 0-0.2-0.2-0.6-0.4-0.8s-0.6-0.4-1.1-0.4c-0.2 0-0.4 0-0.6 0.1-0.1-0.2-0.2-0.3-0.3-0.5-0.2-0.2-0.5-0.4-1.1-0.4-0.2 0-0.4 0-0.5 0.1v-1.7c0-0.6-0.4-1.4-1.4-1.4-0.4 0-0.8 0.2-1.1 0.4-0.5 0.6-0.5 1.4-0.5 1.4v4.3c-0.6 0.1-1.1 0.3-1.4 0.6-0.6 0.7-0.6 1.6-0.6 2.8 0 0.2 0 0.5 0 0.7 0 1.4 0.7 2.1 1.4 2.8l0.3 0.4c1.3 1.2 2.4 1.6 5.1 1.6 2.9 0 4.2-1.6 4.2-5.1v-2.5c0-0.7-0.2-2.1-1.4-2.4zM13 7.4v2.6c0 3.4-1.3 4.1-3.2 4.1-2.4 0-3.3-0.3-4.3-1.3-0.1-0.1-0.2-0.2-0.4-0.4-0.7-0.8-1.1-1.2-1.1-2.2 0-0.2 0-0.5 0-0.7 0-1 0-1.7 0.3-2.1 0.1-0.1 0.4-0.2 0.7-0.2v0.5l-0.3 1.5c0 0.1 0 0.1 0.1 0.2s0.2 0 0.2 0l1-1.2c0-0.1 0-0.2 0-0.2v-6.2c0-0.1 0-0.5 0.2-0.7 0.1 0 0.2-0.1 0.4-0.1 0.3 0 0.4 0.3 0.4 0.4v3.1c0 0 0 0 0 0v1.2c0 0.3 0.2 0.6 0.5 0.6s0.5-0.3 0.5-0.5v-1.3c0 0 0 0 0 0 0-0.1 0.1-0.5 0.5-0.5 0.3 0 0.5 0.1 0.5 0.4v1.3c0 0.3 0.2 0.6 0.5 0.6s0.5-0.3 0.5-0.5v-0.7c0-0.1 0.1-0.3 0.5-0.3 0.2 0 0.3 0.1 0.3 0.1 0.2 0.1 0.2 0.4 0.2 0.4v0.8c0 0.3 0.2 0.5 0.4 0.5 0.3 0 0.5-0.1 0.5-0.4 0-0.1 0.1-0.2 0.2-0.3 0 0 0.1 0 0.2 0 0.6 0.2 0.7 1.2 0.7 1.5 0-0.1 0-0.1 0 0z"
     id="path1"
     style="fill:#000000;fill-opacity:1" />
</svg>
